<svg xmlns="http://www.w3.org/2000/svg" fill="none" viewBox="-0.75 -0.75 48 48" height="48" width="48"><path stroke="#000000" stroke-linejoin="round" d="M1.9375 3.83194875C1.9375 2.785679375 2.785679375 1.9375 3.83194875 1.9375H10.4625c1.046269375 0 1.89444875 0.848179375 1.89444875 1.89444875V10.4625c0 1.046269375 -0.848179375 1.89444875 -1.89444875 1.89444875H3.83194875C2.785679375 12.356948749999999 1.9375 11.508769375 1.9375 10.4625V3.83194875Z" stroke-width="1.5"></path><path stroke="#000000" stroke-linecap="round" stroke-linejoin="round" d="M7.1471275 8.094351875000001c-0.523144375 0 -0.947224375 -0.42407999999999996 -0.947224375 -0.947224375s0.42407999999999996 -0.947224375 0.947224375 -0.947224375" stroke-width="1.5"></path><path stroke="#000000" stroke-linecap="round" stroke-linejoin="round" d="M7.1471275 8.094351875000001c0.523144375 0 0.947224375 -0.42407999999999996 0.947224375 -0.947224375s-0.42407999999999996 -0.947224375 -0.947224375 -0.947224375" stroke-width="1.5"></path><path stroke="#000000" stroke-linecap="round" stroke-linejoin="round" d="M23.25 8.094351875000001c-0.5231250000000001 0 -0.94724375 -0.42407999999999996 -0.94724375 -0.947224375s0.42411875000000004 -0.947224375 0.94724375 -0.947224375" stroke-width="1.5"></path><path stroke="#000000" stroke-linecap="round" stroke-linejoin="round" d="M23.25 8.094351875000001c0.5231250000000001 0 0.94724375 -0.42407999999999996 0.94724375 -0.947224375S23.773125 6.199903125 23.25 6.199903125" stroke-width="1.5"></path><path stroke="#000000" stroke-linecap="round" stroke-linejoin="round" d="M39.35295 8.094351875000001c-0.52331875 0 -0.94724375 -0.42407999999999996 -0.94724375 -0.947224375s0.423925 -0.947224375 0.94724375 -0.947224375" stroke-width="1.5"></path><path stroke="#000000" stroke-linecap="round" stroke-linejoin="round" d="M39.35295 8.094351875000001c0.5231250000000001 0 0.9470500000000001 -0.42407999999999996 0.9470500000000001 -0.947224375s-0.423925 -0.947224375 -0.9470500000000001 -0.947224375" stroke-width="1.5"></path><path stroke="#000000" stroke-linecap="round" stroke-linejoin="round" d="M7.1471275 24.19724375c-0.523144375 0 -0.947224375 -0.42411875000000004 -0.947224375 -0.94724375s0.42407999999999996 -0.94724375 0.947224375 -0.94724375" stroke-width="1.5"></path><path stroke="#000000" stroke-linecap="round" stroke-linejoin="round" d="M7.1471275 24.19724375c0.523144375 0 0.947224375 -0.42411875000000004 0.947224375 -0.94724375s-0.42407999999999996 -0.94724375 -0.947224375 -0.94724375" stroke-width="1.5"></path><path stroke="#000000" stroke-linecap="round" stroke-linejoin="round" d="M7.1471275 40.300000000000004c-0.523144375 0 -0.947224375 -0.423925 -0.947224375 -0.9470500000000001 0 -0.52331875 0.42407999999999996 -0.94724375 0.947224375 -0.94724375" stroke-width="1.5"></path><path stroke="#000000" stroke-linecap="round" stroke-linejoin="round" d="M7.1471275 40.300000000000004c0.523144375 0 0.947224375 -0.423925 0.947224375 -0.9470500000000001 0 -0.52331875 -0.42407999999999996 -0.94724375 -0.947224375 -0.94724375" stroke-width="1.5"></path><path stroke="#000000" stroke-linecap="round" stroke-linejoin="round" d="M23.25 24.19724375c-0.5231250000000001 0 -0.94724375 -0.42411875000000004 -0.94724375 -0.94724375s0.42411875000000004 -0.94724375 0.94724375 -0.94724375" stroke-width="1.5"></path><path stroke="#000000" stroke-linecap="round" stroke-linejoin="round" d="M23.25 24.19724375c0.5231250000000001 0 0.94724375 -0.42411875000000004 0.94724375 -0.94724375s-0.42411875000000004 -0.94724375 -0.94724375 -0.94724375" stroke-width="1.5"></path><path stroke="#000000" stroke-linecap="round" stroke-linejoin="round" d="M23.25 40.300000000000004c-0.5231250000000001 0 -0.94724375 -0.423925 -0.94724375 -0.9470500000000001 0 -0.52331875 0.42411875000000004 -0.94724375 0.94724375 -0.94724375" stroke-width="1.5"></path><path stroke="#000000" stroke-linecap="round" stroke-linejoin="round" d="M23.25 40.300000000000004c0.5231250000000001 0 0.94724375 -0.423925 0.94724375 -0.9470500000000001 0 -0.52331875 -0.42411875000000004 -0.94724375 -0.94724375 -0.94724375" stroke-width="1.5"></path><path stroke="#000000" stroke-linecap="round" stroke-linejoin="round" d="M39.35295 24.19724375c-0.52331875 0 -0.94724375 -0.42411875000000004 -0.94724375 -0.94724375s0.423925 -0.94724375 0.94724375 -0.94724375" stroke-width="1.5"></path><path stroke="#000000" stroke-linecap="round" stroke-linejoin="round" d="M39.35295 24.19724375c0.5231250000000001 0 0.9470500000000001 -0.42411875000000004 0.9470500000000001 -0.94724375s-0.423925 -0.94724375 -0.9470500000000001 -0.94724375" stroke-width="1.5"></path><path stroke="#000000" stroke-linecap="round" stroke-linejoin="round" d="M39.35295 40.300000000000004c-0.52331875 0 -0.94724375 -0.423925 -0.94724375 -0.9470500000000001 0 -0.52331875 0.423925 -0.94724375 0.94724375 -0.94724375" stroke-width="1.5"></path><path stroke="#000000" stroke-linecap="round" stroke-linejoin="round" d="M39.35295 40.300000000000004c0.5231250000000001 0 0.9470500000000001 -0.423925 0.9470500000000001 -0.9470500000000001 0 -0.52331875 -0.423925 -0.94724375 -0.9470500000000001 -0.94724375" stroke-width="1.5"></path><path stroke="#000000" stroke-linejoin="round" d="M18.0403725 3.83194875c0 -1.046269375 0.8481599999999999 -1.89444875 1.89437125 -1.89444875h6.630706249999999c1.0462500000000001 0 1.89429375 0.848179375 1.89429375 1.89444875V10.4625c0 1.046269375 -0.84804375 1.89444875 -1.89429375 1.89444875h-6.630706249999999c-1.04621125 0 -1.89437125 -0.848179375 -1.89437125 -1.89444875V3.83194875Z" stroke-width="1.5"></path><path stroke="#000000" stroke-linejoin="round" d="M34.1430125 3.83194875C34.1430125 2.785679375 34.99125 1.9375 36.0375 1.9375h6.6305125c1.0462500000000001 0 1.8944875 0.848179375 1.8944875 1.89444875V10.4625c0 1.046269375 -0.8482375000000001 1.89444875 -1.8944875 1.89444875H36.0375c-1.0462500000000001 0 -1.8944875 -0.848179375 -1.8944875 -1.89444875V3.83194875Z" stroke-width="1.5"></path><path stroke="#000000" stroke-linecap="round" stroke-linejoin="round" d="M12.357006875 7.1471275h5.6833268750000006" stroke-width="1.5"></path><path stroke="#000000" stroke-linecap="round" stroke-linejoin="round" d="M28.45955 7.1471275h5.683462499999999" stroke-width="1.5"></path><path stroke="#000000" stroke-linejoin="round" d="M1.9375 19.93474375c0 -1.04621125 0.848179375 -1.89437125 1.89444875 -1.89437125H10.4625c1.046269375 0 1.89444875 0.8481599999999999 1.89444875 1.89437125v6.630706249999999c0 1.0462500000000001 -0.848179375 1.89429375 -1.89444875 1.89429375H3.83194875c-1.046269375 0 -1.89444875 -0.84804375 -1.89444875 -1.89429375v-6.630706249999999Z" stroke-width="1.5"></path><path stroke="#000000" stroke-linejoin="round" d="M18.0403725 19.93474375c0 -1.04621125 0.8481599999999999 -1.89437125 1.89437125 -1.89437125h6.630706249999999c1.0462500000000001 0 1.89429375 0.8481599999999999 1.89429375 1.89437125v6.630706249999999c0 1.0462500000000001 -0.84804375 1.89429375 -1.89429375 1.89429375h-6.630706249999999c-1.04621125 0 -1.89437125 -0.84804375 -1.89437125 -1.89429375v-6.630706249999999Z" stroke-width="1.5"></path><path stroke="#000000" stroke-linejoin="round" d="M34.1430125 19.93474375c0 -1.04621125 0.8482375000000001 -1.89437125 1.8944875 -1.89437125h6.6305125c1.0462500000000001 0 1.8944875 0.8481599999999999 1.8944875 1.89437125v6.630706249999999c0 1.0462500000000001 -0.8482375000000001 1.89429375 -1.8944875 1.89429375H36.0375c-1.0462500000000001 0 -1.8944875 -0.84804375 -1.8944875 -1.89429375v-6.630706249999999Z" stroke-width="1.5"></path><path stroke="#000000" stroke-linecap="round" stroke-linejoin="round" d="M12.357006875 23.25h5.6833268750000006" stroke-width="1.5"></path><path stroke="#000000" stroke-linecap="round" stroke-linejoin="round" d="M28.45955 23.25h5.683462499999999" stroke-width="1.5"></path><path stroke="#000000" stroke-linejoin="round" d="M1.9375 36.0375c0 -1.0462500000000001 0.848179375 -1.8944875 1.89444875 -1.8944875H10.4625c1.046269375 0 1.89444875 0.8482375000000001 1.89444875 1.8944875v6.6305125c0 1.0462500000000001 -0.848179375 1.8944875 -1.89444875 1.8944875H3.83194875C2.785679375 44.5625 1.9375 43.714262500000004 1.9375 42.6680125V36.0375Z" stroke-width="1.5"></path><path stroke="#000000" stroke-linejoin="round" d="M18.0403725 36.0375c0 -1.0462500000000001 0.8481599999999999 -1.8944875 1.89437125 -1.8944875h6.630706249999999c1.0462500000000001 0 1.89429375 0.8482375000000001 1.89429375 1.8944875v6.6305125c0 1.0462500000000001 -0.84804375 1.8944875 -1.89429375 1.8944875h-6.630706249999999c-1.04621125 0 -1.89437125 -0.8482375000000001 -1.89437125 -1.8944875V36.0375Z" stroke-width="1.5"></path><path stroke="#000000" stroke-linejoin="round" d="M34.1430125 36.0375c0 -1.0462500000000001 0.8482375000000001 -1.8944875 1.8944875 -1.8944875h6.6305125c1.0462500000000001 0 1.8944875 0.8482375000000001 1.8944875 1.8944875v6.6305125c0 1.0462500000000001 -0.8482375000000001 1.8944875 -1.8944875 1.8944875H36.0375c-1.0462500000000001 0 -1.8944875 -0.8482375000000001 -1.8944875 -1.8944875V36.0375Z" stroke-width="1.5"></path><path stroke="#000000" stroke-linecap="round" stroke-linejoin="round" d="M12.357006875 39.35295h5.6833268750000006" stroke-width="1.5"></path><path stroke="#000000" stroke-linecap="round" stroke-linejoin="round" d="M28.45955 39.35295h5.683462499999999" stroke-width="1.5"></path><path stroke="#000000" stroke-linecap="round" stroke-linejoin="round" d="m39.35295 12.357006875 0 5.6833268750000006" stroke-width="1.5"></path><path stroke="#000000" stroke-linecap="round" stroke-linejoin="round" d="m39.35295 28.45955 0 5.683462499999999" stroke-width="1.5"></path><path stroke="#000000" stroke-linecap="round" stroke-linejoin="round" d="m23.25 12.357006875 0 5.6833268750000006" stroke-width="1.5"></path><path stroke="#000000" stroke-linecap="round" stroke-linejoin="round" d="m23.25 28.45955 0 5.683462499999999" stroke-width="1.5"></path><path stroke="#000000" stroke-linecap="round" stroke-linejoin="round" d="m7.1471275 12.357006875 0 5.6833268750000006" stroke-width="1.5"></path><path stroke="#000000" stroke-linecap="round" stroke-linejoin="round" d="m7.1471275 28.45955 0 5.683462499999999" stroke-width="1.5"></path></svg>