<svg xmlns="http://www.w3.org/2000/svg" viewBox="0 0 48 48" height="48" width="48"><g><path d="M43 34a0.52 0.52 0 0 0 -0.28 -0.44 0.52 0.52 0 0 0 -0.54 0c-3.88 3.16 -11.18 4.82 -18.18 4.82s-14.32 -1.66 -18.18 -4.82a0.52 0.52 0 0 0 -0.54 0 0.52 0.52 0 0 0 -0.28 0.44v3.44c0 4.42 8.5 8 19 8s19 -3.58 19 -8Z" fill="#000000" stroke-width="2"></path><path d="M5 28.5c0 4.42 8.5 8 19 8s19 -3.58 19 -8v-3.44a0.52 0.52 0 0 0 -0.28 -0.44 0.52 0.52 0 0 0 -0.54 0c-3.88 3.16 -11.18 4.82 -18.18 4.82s-14.32 -1.66 -18.18 -4.82a0.52 0.52 0 0 0 -0.54 0 0.52 0.52 0 0 0 -0.28 0.44Z" fill="#000000" stroke-width="2"></path><path d="M24 20.5c-7 0 -14.32 -1.66 -18.18 -4.82a0.52 0.52 0 0 0 -0.54 0A0.52 0.52 0 0 0 5 16v3.5c0 4.42 8.5 8 19 8s19 -3.58 19 -8V16a0.52 0.52 0 0 0 -0.28 -0.44 0.52 0.52 0 0 0 -0.54 0c-3.88 3.28 -11.18 4.94 -18.18 4.94Z" fill="#000000" stroke-width="2"></path><path d="M5 10.5a19 8 0 1 0 38 0 19 8 0 1 0 -38 0" fill="#000000" stroke-width="2"></path></g></svg>