<svg xmlns="http://www.w3.org/2000/svg" viewBox="0 0 48 48" height="48" width="48"><path d="m43.7 13.3 -13 -13A0.94 0.94 0 0 0 30 0H9A5 5 0 0 0 4 5v38A5 5 0 0 0 9 48h30a5 5 0 0 0 5 -5V14a0.94 0.94 0 0 0 -0.3 -0.7ZM14 34.92a1.26 1.26 0 0 1 0 -2.5h20a1.26 1.26 0 0 1 0 2.5ZM25.24 40a1.24 1.24 0 0 1 -1.24 1.24H14a1.24 1.24 0 1 1 0 -2.48h10a1.24 1.24 0 0 1 1.24 1.24ZM34 28.58H14A1.26 1.26 0 0 1 14 26h20a1.26 1.26 0 0 1 0 2.5Zm0 -6.34H14a1.24 1.24 0 0 1 0 -2.48h20a1.24 1.24 0 0 1 0 2.48ZM30.8 15a1.8 1.8 0 0 1 -1.8 -1.8V3.32l11.68 11.68Z" fill="#000000" stroke-width="2"></path></svg>