<svg xmlns="http://www.w3.org/2000/svg" fill="none" viewBox="0 0 48 48" height="48" width="48"><path fill="#000000" fill-rule="evenodd" d="M29.496 0a3.5 3.5 0 0 0 -3.5 3.5v9c0 1.932 1.568 3.5 3.5 3.5h15a3.5 3.5 0 0 0 3.5 -3.5v-9A3.5 3.5 0 0 0 44.496 0h-15Zm0 20a3.5 3.5 0 0 0 -3.5 3.5v21c0 1.934 1.568 3.5 3.5 3.5h15a3.5 3.5 0 0 0 3.5 -3.5v-21a3.5 3.5 0 0 0 -3.5 -3.5h-15ZM0.004 3.5C0.004 1.568 1.57 0 3.504 0h15c1.932 0 3.5 1.568 3.5 3.5v21A3.5 3.5 0 0 1 18.504 28h-15a3.5 3.5 0 0 1 -3.5 -3.5V3.5ZM3.504 32a3.5 3.5 0 0 0 -3.5 3.5v9c0 1.932 1.566 3.5 3.5 3.5h15a3.5 3.5 0 0 0 3.5 -3.5v-9A3.5 3.5 0 0 0 18.504 32h-15Z" clip-rule="evenodd" stroke-width="2"></path></svg>