<svg xmlns="http://www.w3.org/2000/svg" viewBox="0 0 48 48" height="48" width="48"><defs></defs><path d="M-416 -206v84h-96V164h970v-370h-874z" fill="none" stroke="#000000" stroke-miterlimit="10" stroke-width="2"></path><path d="M24 0a24 24 0 1 0 24 24A24.026 24.026 0 0 0 24 0zm0 44a20 20 0 1 1 20 -20 20.022 20.022 0 0 1 -20 20z" fill="#000000" stroke-width="2"></path><path d="m10.908 31.882 2.184 3.352a20.332 20.332 0 0 1 22.014 0.13l2.224 -3.324a24.014 24.014 0 0 0 -26.422 -0.158z" fill="#000000" stroke-width="2"></path><path d="M33 19A9 9 0 1 0 24 28a9.01 9.01 0 0 0 9 -9zM24 24a5 5 0 1 1 5 -5A5 5 0 0 1 24 24z" fill="#000000" stroke-width="2"></path></svg>